<svg width="164" height="35" viewBox="0 0 164 35" fill="none" xmlns="http://www.w3.org/2000/svg">
<path fill-rule="evenodd" clip-rule="evenodd" d="M6.12327 8.97047C8.86361 5.46825 13.2518 3.1993 18.1977 3.1993C23.1727 3.1993 27.5833 5.49502 30.3204 9.03237C30.2038 9.14619 30.0978 9.26416 30.0017 9.38197C29.5003 9.99884 29.1231 10.7934 28.8209 11.6003C28.2123 13.2231 27.7481 15.3429 27.3184 17.3278L27.2801 17.5063C26.8513 19.4876 26.4527 21.3303 25.9708 22.6982C25.7543 23.3127 25.5489 23.7472 25.3669 24.0254C25.1769 23.7449 24.9613 23.3052 24.7331 22.6818C24.2177 21.2747 23.7842 19.3607 23.3246 17.317L23.3097 17.2501V17.25C22.8681 15.2871 22.3996 13.2043 21.8155 11.61C21.5221 10.8091 21.162 10.0225 20.6911 9.41131C20.229 8.81155 19.4596 8.13467 18.3344 8.13467C17.2164 8.13467 16.4435 8.8042 15.9746 9.39724C15.4946 10.0045 15.1204 10.7878 14.8121 11.5891C14.1913 13.2026 13.6837 15.3133 13.2113 17.301L13.1625 17.5063C12.6947 19.4753 12.2575 21.3162 11.7611 22.6867C11.5716 23.21 11.3928 23.6083 11.2309 23.8927C11.0728 23.6096 10.8984 23.214 10.7141 22.6951C10.2379 21.3538 9.82074 19.5644 9.3727 17.6426L9.29427 17.3063C8.83006 15.3174 8.32643 13.2029 7.69674 11.5843C7.3839 10.7801 7.00122 9.9928 6.50604 9.38275C6.3939 9.24468 6.26649 9.1045 6.12327 8.97047ZM4.46474 11.6596C4.59525 11.9045 4.73333 12.208 4.87608 12.575C5.42113 13.976 5.88287 15.8877 6.35836 17.9249L6.45092 18.3219C6.88383 20.1807 7.33418 22.1144 7.86464 23.6083C8.14677 24.4028 8.4875 25.181 8.92566 25.7858C9.34004 26.3578 10.0834 27.0967 11.2265 27.0967C12.3663 27.0967 13.1114 26.3614 13.5287 25.792C13.9706 25.1886 14.3169 24.4112 14.6047 23.6162C15.1565 22.0927 15.6263 20.1138 16.0759 18.2199V18.2198L16.1447 17.9303C16.6291 15.8918 17.0954 13.9763 17.6365 12.5702C17.8871 11.9187 18.1218 11.4649 18.3261 11.1833C18.5197 11.4625 18.7409 11.9091 18.9755 12.5493C19.4911 13.9566 19.9242 15.8705 20.3838 17.9142L20.3989 17.9811C20.8404 19.9441 21.3089 22.027 21.893 23.6211C22.1864 24.4223 22.5465 25.2089 23.0174 25.8199C23.4797 26.4198 24.2489 27.0967 25.3739 27.0967C26.5049 27.0967 27.2713 26.4136 27.7281 25.8084C28.1918 25.1943 28.5406 24.405 28.8223 23.6052C29.3638 22.0687 29.7943 20.0752 30.2049 18.1788V18.1787L30.2637 17.9034C30.7057 15.8622 31.1299 13.9558 31.6539 12.559C31.7673 12.2551 31.8791 11.996 31.9857 11.7784C32.7884 13.5265 33.2336 15.4567 33.2336 17.4857C33.2336 25.3757 26.5021 31.7721 18.1977 31.7721C9.8936 31.7721 3.16174 25.3757 3.16174 17.4857C3.16174 15.4106 3.62736 13.4388 4.46474 11.6596ZM18.1977 0.342041C8.23277 0.342041 0.154541 8.01749 0.154541 17.4857C0.154541 26.9538 8.23277 34.6292 18.1977 34.6292C28.163 34.6292 36.2408 26.9538 36.2408 17.4857C36.2408 8.01749 28.163 0.342041 18.1977 0.342041ZM18.5415 10.9442C18.5415 10.9445 18.538 10.9472 18.531 10.9511C18.5379 10.9458 18.5415 10.9438 18.5415 10.9442ZM18.1259 10.9461C18.1189 10.9421 18.1154 10.9393 18.1154 10.9389C18.1154 10.9385 18.1189 10.9406 18.1259 10.9461ZM25.1452 24.2966C25.1452 24.2966 25.1485 24.2935 25.155 24.2896C25.1485 24.2949 25.1452 24.2971 25.1452 24.2966ZM25.5824 24.2851C25.5894 24.2891 25.5932 24.2918 25.5932 24.2922C25.5932 24.2926 25.5894 24.2904 25.5824 24.2851ZM10.9184 24.3223C10.9183 24.3218 10.9227 24.3178 10.9313 24.3121C10.9227 24.3196 10.9184 24.3227 10.9184 24.3223ZM11.5274 24.3148C11.536 24.3205 11.5403 24.3245 11.5403 24.3249C11.5402 24.3254 11.5359 24.3227 11.5274 24.3148Z" fill="#81818B"/>
<path d="M46.2037 27.6351L41.8284 13.4144H45.6609L48.2559 23.6498L51.2731 13.4144H55.5582L58.5759 23.6498L61.2009 13.4144H65.0334L60.6276 27.6351H56.6145L53.4156 16.9982L50.2173 27.6351H46.2037Z" fill="#81818B"/>
<path d="M70.6567 27.9793C69.3694 27.9793 68.3131 27.7877 67.4883 27.4055C66.6641 27.0042 66.0503 26.4786 65.6477 25.8287C65.2455 25.1788 65.0444 24.4621 65.0444 23.6785C65.0444 22.3597 65.5873 21.2893 66.6735 20.4674C67.7597 19.6455 69.3899 19.2346 71.5623 19.2346H75.3644V18.8905C75.3644 17.9157 75.0725 17.199 74.4892 16.7402C73.9059 16.2815 73.1814 16.0522 72.3167 16.0522C71.5319 16.0522 70.8478 16.2337 70.2645 16.5969C69.6812 16.9409 69.319 17.457 69.1783 18.1451H65.4062C65.507 17.113 65.8692 16.2146 66.4924 15.45C67.1366 14.6855 67.9613 14.1025 68.9667 13.7012C69.9731 13.2807 71.0993 13.0704 72.3467 13.0704C74.4792 13.0704 76.1587 13.5769 77.3861 14.5899C78.6131 15.603 79.2268 17.0366 79.2268 18.8905V27.6351H75.9371L75.5754 25.3416C75.1328 26.1061 74.5091 26.7366 73.7048 27.2338C72.92 27.7306 71.9041 27.9793 70.6567 27.9793ZM71.5319 25.112C72.6386 25.112 73.4933 24.7678 74.0965 24.0798C74.7202 23.3919 75.1129 22.5411 75.2741 21.5282H71.9844C70.9586 21.5282 70.2246 21.7098 69.7815 22.0729C69.3395 22.4168 69.1179 22.8472 69.1179 23.3631C69.1179 23.9175 69.3395 24.3475 69.7815 24.6532C70.2246 24.9589 70.8074 25.112 71.5319 25.112Z" fill="#81818B"/>
<path d="M85.3068 27.6351L79.8153 13.4144H83.8583L87.6604 24.1661L91.4624 13.4144H95.506L89.984 27.6351H85.3068Z" fill="#81818B"/>
<path d="M103.27 27.9793C101.762 27.9793 100.424 27.6732 99.257 27.0617C98.0905 26.4498 97.1754 25.5898 96.5113 24.4811C95.8472 23.3728 95.5159 22.092 95.5159 20.6394C95.5159 19.1677 95.8377 17.8584 96.4808 16.7116C97.145 15.5648 98.05 14.676 99.1972 14.0452C100.363 13.3954 101.731 13.0704 103.301 13.0704C104.769 13.0704 106.067 13.3762 107.193 13.9879C108.32 14.5995 109.195 15.4405 109.818 16.5109C110.462 17.5621 110.784 18.7376 110.784 20.0373C110.784 20.2476 110.774 20.4674 110.754 20.6967C110.754 20.9262 110.744 21.165 110.724 21.4135H99.3479C99.4282 22.5221 99.8308 23.3919 100.555 24.0228C101.299 24.6532 102.194 24.9687 103.241 24.9687C104.025 24.9687 104.679 24.8063 105.202 24.4811C105.744 24.1373 106.147 23.6976 106.409 23.1622H110.331C110.05 24.0608 109.577 24.8828 108.913 25.6283C108.269 26.3543 107.465 26.9277 106.499 27.3484C105.554 27.7687 104.477 27.9793 103.27 27.9793ZM103.301 16.0522C102.356 16.0522 101.52 16.3102 100.796 16.8262C100.072 17.3232 99.6093 18.0878 99.4077 19.1199H106.861C106.801 18.1833 106.439 17.4379 105.775 16.8836C105.111 16.3293 104.287 16.0522 103.301 16.0522Z" fill="#81818B"/>
<path d="M112.826 27.635V6.99219H116.688V27.635H112.826Z" fill="#81818B"/>
<path d="M126.699 27.9793C125.191 27.9793 123.853 27.6732 122.686 27.0617C121.52 26.4498 120.605 25.5898 119.94 24.4811C119.276 23.3728 118.945 22.092 118.945 20.6394C118.945 19.1677 119.267 17.8584 119.91 16.7116C120.574 15.5648 121.479 14.676 122.626 14.0452C123.793 13.3954 125.161 13.0704 126.73 13.0704C128.198 13.0704 129.496 13.3762 130.623 13.9879C131.749 14.5995 132.624 15.4405 133.248 16.5109C133.891 17.5621 134.214 18.7376 134.214 20.0373C134.214 20.2476 134.203 20.4674 134.183 20.6967C134.183 20.9262 134.173 21.165 134.153 21.4135H122.777C122.857 22.5221 123.26 23.3919 123.984 24.0228C124.728 24.6532 125.624 24.9687 126.67 24.9687C127.454 24.9687 128.108 24.8063 128.631 24.4811C129.174 24.1373 129.576 23.6976 129.838 23.1622H133.761C133.479 24.0608 133.006 24.8828 132.343 25.6283C131.698 26.3543 130.894 26.9277 129.928 27.3484C128.983 27.7687 127.907 27.9793 126.699 27.9793ZM126.73 16.0522C125.785 16.0522 124.949 16.3102 124.225 16.8262C123.501 17.3232 123.038 18.0878 122.837 19.1199H130.29C130.23 18.1833 129.868 17.4379 129.204 16.8836C128.54 16.3293 127.716 16.0522 126.73 16.0522Z" fill="#81818B"/>
<path d="M142.441 27.9793C141.113 27.9793 139.946 27.7784 138.941 27.3772C137.934 26.9564 137.13 26.3831 136.526 25.6566C135.923 24.9306 135.561 24.0896 135.44 23.134H139.332C139.453 23.6878 139.776 24.1661 140.298 24.5674C140.841 24.9496 141.535 25.1408 142.38 25.1408C143.225 25.1408 143.839 24.9784 144.221 24.6532C144.623 24.3285 144.824 23.9555 144.824 23.5352C144.824 22.9234 144.543 22.5124 143.98 22.3022C143.416 22.0729 142.632 21.8532 141.626 21.6429C140.982 21.5091 140.329 21.3466 139.665 21.1555C139.001 20.9644 138.387 20.7254 137.824 20.4388C137.281 20.1329 136.838 19.7506 136.496 19.2919C136.154 18.814 135.983 18.2311 135.983 17.543C135.983 16.2815 136.506 15.2207 137.553 14.3606C138.618 13.5005 140.107 13.0704 142.018 13.0704C143.789 13.0704 145.197 13.4622 146.242 14.2459C147.309 15.0296 147.942 16.1095 148.144 17.4857H144.493C144.271 16.4344 143.436 15.9088 141.988 15.9088C141.264 15.9088 140.701 16.0426 140.298 16.3102C139.916 16.5778 139.725 16.9122 139.725 17.3136C139.725 17.7342 140.016 18.0686 140.6 18.3171C141.184 18.5656 141.958 18.7949 142.923 19.0052C143.969 19.2346 144.925 19.4926 145.79 19.7793C146.675 20.0469 147.379 20.4579 147.903 21.0122C148.425 21.5473 148.687 22.3212 148.687 23.3343C148.707 24.2139 148.465 25.0067 147.963 25.7141C147.46 26.4211 146.736 26.9754 145.79 27.3772C144.845 27.7784 143.728 27.9793 142.441 27.9793Z" fill="#81818B"/>
<path d="M157.087 27.9793C155.76 27.9793 154.593 27.7784 153.587 27.3772C152.581 26.9564 151.776 26.3831 151.173 25.6566C150.57 24.9306 150.207 24.0896 150.087 23.134H153.979C154.1 23.6878 154.422 24.1661 154.945 24.5674C155.488 24.9496 156.182 25.1408 157.027 25.1408C157.872 25.1408 158.485 24.9784 158.868 24.6532C159.27 24.3285 159.471 23.9555 159.471 23.5352C159.471 22.9234 159.189 22.5124 158.626 22.3022C158.063 22.0729 157.278 21.8532 156.273 21.6429C155.629 21.5091 154.975 21.3466 154.311 21.1555C153.648 20.9644 153.034 20.7254 152.471 20.4388C151.928 20.1329 151.485 19.7506 151.143 19.2919C150.801 18.814 150.63 18.2311 150.63 17.543C150.63 16.2815 151.153 15.2207 152.199 14.3606C153.265 13.5005 154.754 13.0704 156.665 13.0704C158.435 13.0704 159.843 13.4622 160.889 14.2459C161.955 15.0296 162.589 16.1095 162.79 17.4857H159.139C158.918 16.4344 158.083 15.9088 156.635 15.9088C155.91 15.9088 155.347 16.0426 154.945 16.3102C154.563 16.5778 154.372 16.9122 154.372 17.3136C154.372 17.7342 154.663 18.0686 155.247 18.3171C155.83 18.5656 156.604 18.7949 157.57 19.0052C158.616 19.2346 159.572 19.4926 160.437 19.7793C161.322 20.0469 162.026 20.4579 162.549 21.0122C163.072 21.5473 163.334 22.3212 163.334 23.3343C163.354 24.2139 163.112 25.0067 162.609 25.7141C162.106 26.4211 161.382 26.9754 160.437 27.3772C159.491 27.7784 158.375 27.9793 157.087 27.9793Z" fill="#81818B"/>
</svg>
